<svg xmlns="http://www.w3.org/2000/svg" xmlns:xlink="http://www.w3.org/1999/xlink" width="500" zoomAndPan="magnify" viewBox="0 0 375 374.999991" height="500" preserveAspectRatio="xMidYMid meet" version="1.2"><defs><clipPath id="c11b423744"><path d="M 96 1.050781 L 278.90625 1.050781 L 278.90625 200.972656 L 96 200.972656 Z M 96 1.050781 "/></clipPath><clipPath id="ea7c761e34"><path d="M 121 254 L 269 254 L 269 276.679688 L 121 276.679688 Z M 121 254 "/></clipPath><clipPath id="ac5c379b63"><rect x="0" width="148" y="0" height="23"/></clipPath><clipPath id="0dc9b85ed8"><path d="M 259 185 L 370.320312 185 L 370.320312 217 L 259 217 Z M 259 185 "/></clipPath><clipPath id="3fd52fb1a4"><rect x="0" width="271" y="0" height="45"/></clipPath><clipPath id="b0c28d51ed"><rect x="0" width="371" y="0" height="277"/></clipPath></defs><g id="276a317987"><g transform="matrix(1,0,0,1,0,49)"><g clip-path="url(#b0c28d51ed)"><g clip-rule="nonzero" clip-path="url(#c11b423744)"><path style=" stroke:none;fill-rule:evenodd;fill:#2b304b;fill-opacity:1;" d="M 98.242188 201.117188 L 100.4375 201.117188 L 100.4375 115.195312 L 135.628906 98.488281 L 135.628906 201.117188 L 160.183594 201.117188 L 160.183594 81.964844 L 140.03125 91.535156 L 140.03125 8.261719 L 195.378906 37.332031 L 195.378906 80.839844 L 175.222656 94.625 L 175.222656 201.117188 L 199.777344 201.117188 L 199.777344 83.15625 L 234.96875 59.109375 L 234.96875 108.488281 L 214.816406 100.21875 L 214.816406 201.117188 L 239.371094 201.117188 L 239.371094 115.035156 L 274.5625 129.464844 L 274.5625 201.117188 L 278.960938 201.117188 L 278.960938 126.527344 L 239.371094 110.292969 L 239.371094 50.785156 L 199.777344 77.832031 L 199.777344 34.683594 L 135.628906 0.996094 L 135.628906 93.625 L 96.039062 112.421875 L 96.039062 201.117188 Z M 234.96875 113.230469 L 234.96875 196.714844 L 219.214844 196.714844 L 219.214844 106.765625 Z M 195.378906 86.164062 L 195.378906 196.714844 L 179.621094 196.714844 L 179.621094 96.933594 Z M 140.03125 96.394531 L 155.785156 88.917969 L 155.785156 196.714844 L 140.03125 196.714844 L 140.03125 96.394531 "/></g><g clip-rule="nonzero" clip-path="url(#ea7c761e34)"><g transform="matrix(1,0,0,1,121,254)"><g id="60fb25f57d" clip-path="url(#ac5c379b63)"><g style="fill:#2b304b;fill-opacity:1;"><g transform="translate(0.500902, 17.033162)"><path style="stroke:none" d="M 1.300781 -13.84375 C 1.300781 -13.382812 1.691406 -13.007812 2.136719 -13.007812 C 2.597656 -13.007812 2.953125 -13.382812 2.953125 -13.84375 C 2.953125 -14.308594 2.597656 -14.679688 2.136719 -14.679688 C 1.691406 -14.679688 1.300781 -14.308594 1.300781 -13.84375 Z M 2.863281 0 L 2.863281 -11.867188 L 1.386719 -11.867188 L 1.386719 0 Z M 2.863281 0 "/></g></g><g style="fill:#2b304b;fill-opacity:1;"><g transform="translate(18.985968, 17.033162)"><path style="stroke:none" d="M 11.210938 0 L 11.210938 -11.867188 L 9.734375 -11.867188 L 9.734375 -2.492188 L 2.902344 -11.867188 L 1.386719 -11.867188 L 1.386719 0 L 2.863281 0 L 2.863281 -9.574219 L 9.785156 0 Z M 11.210938 0 "/></g></g><g style="fill:#2b304b;fill-opacity:1;"><g transform="translate(45.810101, 17.033162)"><path style="stroke:none" d="M 9.609375 -3.273438 C 9.609375 -5.765625 7.402344 -6.371094 5.460938 -6.886719 C 3.949219 -7.296875 2.582031 -7.652344 2.582031 -8.84375 C 2.582031 -9.964844 3.59375 -10.730469 5.019531 -10.730469 C 6.316406 -10.730469 7.5625 -10.285156 8.453125 -9.304688 L 9.34375 -10.390625 C 8.34375 -11.441406 6.941406 -12.046875 5.125 -12.046875 C 2.792969 -12.046875 1.050781 -10.710938 1.050781 -8.753906 C 1.050781 -6.421875 3.167969 -5.890625 5.070312 -5.390625 C 6.636719 -4.964844 8.078125 -4.574219 8.078125 -3.148438 C 8.078125 -2.242188 7.402344 -1.101562 5.285156 -1.101562 C 3.613281 -1.101562 2.332031 -1.921875 1.546875 -2.792969 L 0.675781 -1.671875 C 1.566406 -0.660156 2.917969 0.0898438 4.734375 0.195312 L 4.324219 1.300781 L 4.910156 1.636719 C 5.070312 1.460938 5.339844 1.335938 5.585938 1.335938 C 6.03125 1.335938 6.246094 1.582031 6.246094 1.921875 C 6.246094 2.4375 5.730469 2.703125 5.160156 2.703125 C 4.679688 2.703125 4.164062 2.542969 3.738281 2.1875 L 3.398438 2.863281 C 3.753906 3.148438 4.429688 3.398438 5.195312 3.398438 C 6.210938 3.398438 7.046875 2.847656 7.046875 1.941406 C 7.046875 1.246094 6.546875 0.78125 5.871094 0.78125 C 5.640625 0.78125 5.390625 0.855469 5.214844 0.980469 L 5.515625 0.214844 C 8.503906 0.105469 9.609375 -1.601562 9.609375 -3.273438 Z M 9.609375 -3.273438 "/></g></g><g style="fill:#2b304b;fill-opacity:1;"><g transform="translate(70.465011, 17.033162)"><path style="stroke:none" d="M 11.546875 0 L 6.761719 -11.867188 L 4.929688 -11.867188 L 0.160156 0 L 1.796875 0 L 2.847656 -2.632812 L 8.863281 -2.632812 L 9.910156 0 Z M 8.417969 -3.949219 L 3.273438 -3.949219 L 5.855469 -10.550781 Z M 8.417969 -3.949219 "/></g></g><g style="fill:#2b304b;fill-opacity:1;"><g transform="translate(96.400121, 17.033162)"><path style="stroke:none" d="M 11.546875 0 L 6.761719 -11.867188 L 4.929688 -11.867188 L 0.160156 0 L 1.796875 0 L 2.847656 -2.632812 L 8.863281 -2.632812 L 9.910156 0 Z M 8.417969 -3.949219 L 3.273438 -3.949219 L 5.855469 -10.550781 Z M 8.417969 -3.949219 "/></g></g><g style="fill:#2b304b;fill-opacity:1;"><g transform="translate(122.335231, 17.033162)"><path style="stroke:none" d="M 5.800781 0 L 5.800781 -10.550781 L 9.574219 -10.550781 L 9.574219 -11.867188 L 0.570312 -11.867188 L 0.570312 -10.550781 L 4.324219 -10.550781 L 4.324219 0 Z M 5.800781 0 "/></g></g></g></g></g><path style="fill:none;stroke-width:3;stroke-linecap:butt;stroke-linejoin:miter;stroke:#2b304b;stroke-opacity:1;stroke-miterlimit:4;" d="M -0.000569904 1.5019 L 112.30683 1.5019 " transform="matrix(0.8925,0,0,0.8925,0.172384,199.987679)"/><path style="fill:none;stroke-width:3;stroke-linecap:butt;stroke-linejoin:miter;stroke:#2b304b;stroke-opacity:1;stroke-miterlimit:4;" d="M 0.000072522 1.499651 L 54.897645 1.499651 " transform="matrix(0.8925,0,0,0.8925,51.410092,265.231874)"/><path style="fill:none;stroke-width:3;stroke-linecap:butt;stroke-linejoin:miter;stroke:#2b304b;stroke-opacity:1;stroke-miterlimit:4;" d="M -0.00199705 1.499651 L 54.895576 1.499651 " transform="matrix(0.8925,0,0,0.8925,274.603345,265.231874)"/><g clip-rule="nonzero" clip-path="url(#0dc9b85ed8)"><path style="fill:none;stroke-width:3;stroke-linecap:butt;stroke-linejoin:miter;stroke:#2b304b;stroke-opacity:1;stroke-miterlimit:4;" d="M -0.00202208 1.501901 L 105.163019 1.501235 " transform="matrix(0.892496,-0.00270586,0.00270586,0.892496,274.599303,199.987679)"/></g><g transform="matrix(1,0,0,1,65,210)"><g id="6ba6e4a27a" clip-path="url(#3fd52fb1a4)"><g style="fill:#2b304b;fill-opacity:1;"><g transform="translate(1.414999, 34.177924)"><path style="stroke:none" d="M 18.921875 -7.65625 L 22.5 0 L 26.109375 0 L 13.984375 -26.03125 L 12.125 -26.03125 L 1.109375 0 L 2.828125 0 L 6.09375 -7.65625 Z M 18.140625 -9.328125 L 6.8125 -9.328125 L 12.15625 -21.859375 L 12.3125 -21.859375 Z M 18.140625 -9.328125 "/></g></g><g style="fill:#2b304b;fill-opacity:1;"><g transform="translate(54.663694, 34.177924)"><path style="stroke:none" d="M 1.109375 -26.03125 L 10.109375 -9.859375 L 10.109375 0 L 13.5 0 L 13.5 -10.1875 L 22.640625 -26.03125 L 20.640625 -26.03125 L 12.6875 -12.3125 L 12.53125 -12.3125 L 4.953125 -26.03125 Z M 1.109375 -26.03125 "/></g></g><g style="fill:#2b304b;fill-opacity:1;"><g transform="translate(104.454472, 34.177924)"><path style="stroke:none" d="M 26.359375 -4.796875 C 23.835938 -2.421875 20.835938 -1.234375 17.359375 -1.234375 C 15.429688 -1.234375 13.722656 -1.566406 12.234375 -2.234375 C 10.742188 -2.898438 9.503906 -3.789062 8.515625 -4.90625 C 7.523438 -6.019531 6.773438 -7.304688 6.265625 -8.765625 C 5.753906 -10.234375 5.5 -11.757812 5.5 -13.34375 C 5.5 -15.03125 5.765625 -16.570312 6.296875 -17.96875 C 6.835938 -19.375 7.585938 -20.582031 8.546875 -21.59375 C 9.515625 -22.613281 10.660156 -23.410156 11.984375 -23.984375 C 13.316406 -24.554688 14.765625 -24.84375 16.328125 -24.84375 C 17.390625 -24.84375 18.359375 -24.71875 19.234375 -24.46875 C 20.117188 -24.21875 20.898438 -23.894531 21.578125 -23.5 C 22.265625 -23.101562 22.820312 -22.648438 23.25 -22.140625 C 23.6875 -21.640625 23.992188 -21.128906 24.171875 -20.609375 L 26.921875 -20.609375 C 26.546875 -21.441406 26.066406 -22.21875 25.484375 -22.9375 C 24.910156 -23.65625 24.1875 -24.273438 23.3125 -24.796875 C 22.445312 -25.316406 21.429688 -25.726562 20.265625 -26.03125 C 19.097656 -26.332031 17.769531 -26.484375 16.28125 -26.484375 C 14.125 -26.484375 12.160156 -26.171875 10.390625 -25.546875 C 8.617188 -24.929688 7.097656 -24.046875 5.828125 -22.890625 C 4.566406 -21.734375 3.585938 -20.34375 2.890625 -18.71875 C 2.203125 -17.09375 1.859375 -15.28125 1.859375 -13.28125 C 1.859375 -11.539062 2.132812 -9.847656 2.6875 -8.203125 C 3.25 -6.554688 4.113281 -5.09375 5.28125 -3.8125 C 6.445312 -2.53125 7.929688 -1.5 9.734375 -0.71875 C 11.546875 0.0625 13.707031 0.453125 16.21875 0.453125 C 17.800781 0.453125 19.21875 0.300781 20.46875 0 C 21.71875 -0.300781 22.804688 -0.664062 23.734375 -1.09375 C 24.671875 -1.53125 25.445312 -1.992188 26.0625 -2.484375 C 26.6875 -2.984375 27.160156 -3.421875 27.484375 -3.796875 Z M 26.359375 -4.796875 "/></g></g><g style="fill:#2b304b;fill-opacity:1;"><g transform="translate(158.70708, 34.177924)"><path style="stroke:none" d="M 18.921875 -7.65625 L 22.5 0 L 26.109375 0 L 13.984375 -26.03125 L 12.125 -26.03125 L 1.109375 0 L 2.828125 0 L 6.09375 -7.65625 Z M 18.140625 -9.328125 L 6.8125 -9.328125 L 12.15625 -21.859375 L 12.3125 -21.859375 Z M 18.140625 -9.328125 "/></g></g><g style="fill:#2b304b;fill-opacity:1;"><g transform="translate(211.955775, 34.177924)"><path style="stroke:none" d="M 25.4375 -26.03125 L 25.4375 -6.140625 L 25.28125 -6.140625 L 4.65625 -26.484375 L 4.46875 -26.484375 L 4.46875 0 L 6.171875 0 L 6.171875 -19.890625 L 6.328125 -19.890625 L 26.96875 0.453125 L 27.140625 0.453125 L 27.140625 -26.03125 Z M 25.4375 -26.03125 "/></g></g></g></g></g></g></g></svg>